# xmcd
#
# Track frame offsets:
#	150
#	13977
#	29175
#	45022
#	61196
#	77189
#	98153
#	116784
#	129337
#	142978
#	162969
#	178018
#	191529
#
# Disc length: 2667 seconds
# Revision: 0
# Processed by: cddbd v1.5.2PL0 Copyright (c) Steve Scherf et al.
# Submitted via: dBpowerAMP V12.0
#
DISCID=ab0a690d
DTITLE=Roomful of Blues - In a Roomful of Blues
DYEAR=1900
DGENRE=
TTITLE0=What Can I Do?
TTITLE1=You Move Me
TTITLE2=In a Roomful of Blues
TTITLE3=Phone Zombies
TTITLE4=Watch Your Back
TTITLE5=She Quit Me Again
TTITLE6=She's Too Much
TTITLE7=Have You Heard
TTITLE8=We'd Have a Love Sublime
TTITLE9=Carcinoma Blues
TTITLE10=Too Much Boogie
TTITLE11=Let the Sleeping Dog Lie
TTITLE12=I Can't Wait
EXTD=
EXTT0=
EXTT1=
EXTT2=
EXTT3=
EXTT4=
EXTT5=
EXTT6=
EXTT7=
EXTT8=
EXTT9=
EXTT10=
EXTT11=
EXTT12=
PLAYORDER=
